<?xml version="1.0" encoding="UTF-8"?>
<svg width="40px" height="40px" viewBox="0 0 40 40" version="1.1" xmlns="http://www.w3.org/2000/svg" xmlns:xlink="http://www.w3.org/1999/xlink">
    <!-- Generator: Sketch 47.1 (45422) - http://www.bohemiancoding.com/sketch -->
    <title>logo scribd</title>
    <desc>Created with Sketch.</desc>
    <defs></defs>
    <g id="Quién-hay?" stroke="none" stroke-width="1" fill="none" fill-rule="evenodd">
        <g id="Pau---mobile" transform="translate(-19.000000, -187.000000)">
            <g id="logo-scribd" transform="translate(19.000000, 187.000000)">
                <path d="M20,40 C8.954305,40 0,31.045695 0,20 C0,8.954305 8.954305,0 20,0 C31.045695,0 40,8.954305 40,20 C40,31.045695 31.045695,40 20,40 Z M24.889213,28.5587016 C24.4752336,27.8559301 24.2191433,27.0508313 24.2191433,26.180008 C24.2191433,24.7072441 24.9138443,23.4079289 25.9813104,22.5340599 C25.9661859,22.4907778 25.9611084,22.4423127 25.9449576,22.3989238 C25.6988603,21.7109536 25.3237725,21.057235 24.8195862,20.4364855 C24.3138335,19.8153085 23.6705018,19.2481005 22.8854859,18.7353423 C22.1004699,18.2207139 21.0030249,17.6663301 19.5932048,17.0715498 C18.1824664,16.4762886 17.1857614,15.928798 16.600767,15.426032 C16.0160968,14.9260447 15.7220332,14.3500734 15.7220332,13.6969425 C15.7220332,12.9413241 16.057041,12.3263456 16.7277589,11.8465565 C17.3971804,11.3684773 18.2715389,11.1291973 19.3485119,11.1291973 C20.2122292,11.1291973 20.8862961,11.2600052 21.392481,11.5078882 C21.2508508,11.8187171 21.1656134,12.160645 21.1656134,12.5237329 C21.1656134,13.8927268 22.2945498,15.0016012 23.6856803,15.0016012 C25.0776751,15.0016012 26.2061254,13.8927268 26.2061254,12.5237329 C26.2061254,11.7829159 25.8672825,11.1245485 25.3414357,10.6695531 C24.6067628,9.8808587 23.7370496,9.26465115 22.7150651,8.84331951 C21.4873872,8.33494293 20.27532,8.08080808 19.0813482,8.08080808 C17.2795333,8.08080808 15.7466645,8.62498582 14.4827419,9.71392908 C13.2190353,10.8026052 12.587317,12.1194469 12.587317,13.6660039 C12.587317,14.309089 12.7004267,14.9122051 12.9247556,15.477062 C13.1496786,16.0406365 13.5051045,16.6083255 13.9869281,17.1778846 C14.4709663,17.7471232 15.0448874,18.2373855 15.7078269,18.6504882 C16.3713607,19.0616138 17.3150219,19.5158612 18.5448604,20.0112531 C19.7721601,20.5053092 20.6699616,20.9453964 21.2322152,21.3287361 C21.7959812,21.7107933 22.2669476,22.1976358 22.6465727,22.7891031 C23.0257657,23.3806239 23.214822,23.9678699 23.214822,24.5539938 C23.214822,25.5324878 22.8537784,26.3438384 22.1298007,26.9847327 C21.4072814,27.6267492 20.4995949,27.9477841 19.4076055,27.9477841 C17.8709555,27.9477841 16.6093556,27.3666831 15.6136769,26.232267 C16.0890725,25.780157 16.389132,25.1511252 16.389132,24.4486742 C16.389132,23.080749 15.261708,21.9719815 13.8696051,21.9719815 C12.4779884,21.9719815 11.3495382,23.080749 11.3495382,24.4486742 C11.3495382,24.6843207 11.3938854,24.9068223 11.456436,25.1207743 L11.3998271,25.1365375 C12.1574569,27.1123345 13.2396154,28.5933807 14.6453303,29.582241 C16.0521795,30.5712616 17.6756333,31.0639818 19.5109383,31.0639818 C21.3956139,31.0639818 23.0004861,30.4320111 24.325501,29.1683902 C24.5317345,28.9727127 24.7162534,28.7667224 24.889213,28.5587016 Z M28.5788905,23.3226474 C26.9734781,23.3226474 25.6726625,24.6024589 25.6726625,26.1801683 C25.6726625,27.7577173 26.9734781,29.0375823 28.5788905,29.0375823 C30.1843029,29.0375823 31.4851186,27.7583051 31.4851186,26.1801683 C31.4851186,24.6019246 30.1842489,23.3226474 28.5788905,23.3226474 Z" id="Combined-Shape" fill="#1C1C1B"></path>
                <g id="scribd-logo" transform="translate(11.313131, 8.080808)">
                    <g id="Capa_1"></g>
                </g>
            </g>
        </g>
    </g>
</svg>