<?xml version="1.0" encoding="UTF-8"?>
<svg width="44px" height="31px" viewBox="0 0 44 31" version="1.1" xmlns="http://www.w3.org/2000/svg" xmlns:xlink="http://www.w3.org/1999/xlink">
    <!-- Generator: Sketch 41.2 (35397) - http://www.bohemiancoding.com/sketch -->
    <title>chevron-arrow-down</title>
    <desc>Created with Sketch.</desc>
    <defs>
        <path d="M35.1304989,2.63583274 L33.3985348,0.882921708 C32.7983461,0.30669395 32.0973573,0.0184982206 31.2971865,0.0184982206 C30.4805124,0.0184982206 29.7878562,0.30669395 29.2180854,0.882921708 L17.9927191,12.2406655 L6.76743371,0.88324911 C6.19774382,0.307021352 5.50492584,0.0188256228 4.68857528,0.0188256228 C3.888,0.0188256228 3.18717303,0.307021352 2.58690337,0.88324911 L0.87767191,2.63616014 C0.292449438,3.22785765 0,3.93692883 0,4.76271886 C0,5.6038968 0.292773034,6.30494662 0.877591011,6.86570463 L15.9137798,22.0788541 C16.4683416,22.6706335 17.1609169,22.9667687 17.9926382,22.9667687 C18.8087461,22.9667687 19.5094921,22.6707153 20.0941483,22.0788541 L35.130418,6.86570463 C35.7001888,6.28914947 35.9852764,5.58818149 35.9852764,4.76271886 C35.9853573,3.95231673 35.7002697,3.2436548 35.1304989,2.63583274 Z" id="path-1"></path>
        <filter x="-50%" y="-50%" width="200%" height="200%" filterUnits="objectBoundingBox" id="filter-2">
            <feOffset dx="0" dy="2" in="SourceAlpha" result="shadowOffsetOuter1"></feOffset>
            <feGaussianBlur stdDeviation="2" in="shadowOffsetOuter1" result="shadowBlurOuter1"></feGaussianBlur>
            <feColorMatrix values="0 0 0 0 0   0 0 0 0 0   0 0 0 0 0  0 0 0 0.5 0" type="matrix" in="shadowBlurOuter1"></feColorMatrix>
        </filter>
    </defs>
    <g id="Home" stroke="none" stroke-width="1" fill="none" fill-rule="evenodd" opacity="0.698822464">
        <g id="Mobile-Portrait" transform="translate(-139.000000, -588.000000)">
            <g id="chevron-arrow-down" transform="translate(143.000000, 590.000000)">
                <g id="Capa_1">
                    <g id="Shape">
                        <use fill="black" fill-opacity="1" filter="url(#filter-2)" xlink:href="#path-1"></use>
                        <use fill="#FFFFFF" fill-rule="evenodd" xlink:href="#path-1"></use>
                    </g>
                </g>
            </g>
        </g>
    </g>
</svg>