<?xml version="1.0" encoding="UTF-8"?>
<svg width="109px" height="141px" viewBox="0 0 109 141" version="1.1" xmlns="http://www.w3.org/2000/svg" xmlns:xlink="http://www.w3.org/1999/xlink">
    <!-- Generator: Sketch 41.2 (35397) - http://www.bohemiancoding.com/sketch -->
    <title>Page 1</title>
    <desc>Created with Sketch.</desc>
    <defs></defs>
    <g id="Home" stroke="none" stroke-width="1" fill="none" fill-rule="evenodd">
        <g id="Mobile-Portrait" transform="translate(-102.000000, -1993.000000)" fill="#1C1C1B">
            <g id="Ãlbum" transform="translate(19.000000, 1993.000000)">
                <g id="Page-1" transform="translate(83.000000, 0.000000)">
                    <path d="M4.88437838,135.828238 L18.7185405,135.828238 L18.7185405,4.7158625 L4.88437838,4.7158625 L4.88437838,135.828238 Z M23.6382703,135.8723 L103.278973,135.8723 L103.278973,4.7658 L23.6382703,4.7658 L23.6382703,135.8723 Z M108.051405,140.589925 L0.103108108,140.589925 C0.0677567568,140.046488 0.00589189189,139.50305 0.00589189189,138.956675 C3.57634929e-15,93.18455 3.57634929e-15,47.4094875 0.00589189189,1.634425 C0.00589189189,1.0909875 0.0677567568,0.5446125 0.103108108,0.001175 L108.051405,0.001175 C108.086757,0.5446125 108.151568,1.0909875 108.151568,1.634425 C108.154514,47.4094875 108.154514,93.18455 108.151568,138.956675 C108.151568,139.50305 108.086757,140.046488 108.051405,140.589925 L108.051405,140.589925 Z" id="Fill-1"></path>
                    <path d="M40.1237838,51.4221125 L86.8229189,51.4221125 L86.8229189,28.259925 L40.1237838,28.259925 L40.1237838,51.4221125 Z M35.3749189,56.2043625 L91.6277568,56.2043625 L91.6277568,23.454175 L35.3749189,23.454175 L35.3749189,56.2043625 Z" id="Fill-3"></path>
                    <polygon id="Fill-4" points="47.0732703 46.824925 79.9087838 46.824925 79.9087838 42.2483 47.0732703 42.2483"></polygon>
                    <polygon id="Fill-5" points="47.0821081 37.4543 79.9176216 37.4543 79.9176216 32.8248 47.0821081 32.8248"></polygon>
                    <path d="M56.2722811,74.7458625 C46.9807676,75.107175 42.0580919,81.452175 41.0977135,90.0943 C40.7412541,86.0023625 39.6630378,82.180675 36.7465514,79.1344875 C33.8006054,76.05305 30.0180108,74.9133 25.8318216,74.7164875 C34.6077946,73.2771125 40.4348757,68.9443 41.0859297,59.3798 C42.3585784,68.2892375 46.7362541,74.0643625 56.2722811,74.7458625" id="Fill-6"></path>
                    <path d="M65.6020919,72.7777375 C66.6125514,79.5428 69.900227,84.0636125 77.2768757,84.6423 C70.0033351,85.2209875 66.6979838,89.7094875 65.6109297,96.40405 C65.3192811,93.260925 64.4148757,90.3792375 62.2054162,88.067425 C59.9547135,85.7144875 57.038227,84.859675 53.8595514,84.6423 C56.932173,84.0988625 59.7897405,83.1618 62.1052541,80.982175 C64.4649568,78.75555 65.4076595,75.9443625 65.6020919,72.7777375" id="Fill-7"></path>
                </g>
            </g>
        </g>
    </g>
</svg>