<?xml version="1.0" encoding="UTF-8"?>
<svg width="99px" height="99px" viewBox="0 0 99 99" version="1.1" xmlns="http://www.w3.org/2000/svg" xmlns:xlink="http://www.w3.org/1999/xlink">
    <!-- Generator: Sketch 41.2 (35397) - http://www.bohemiancoding.com/sketch -->
    <title>Combined Shape Copy</title>
    <desc>Created with Sketch.</desc>
    <defs></defs>
    <g id="Atomic-Design" stroke="none" stroke-width="1" fill="none" fill-rule="evenodd">
        <g id="Desktop" transform="translate(-384.000000, -736.000000)" fill="#F1C921">
            <path d="M433.5,835 C460.838095,835 483,812.838095 483,785.5 C483,758.161905 460.838095,736 433.5,736 C406.161905,736 384,758.161905 384,785.5 C384,812.838095 406.161905,835 433.5,835 Z M459.969137,764.520014 C459.644329,761.364255 457.028776,759.00171 453.850793,759 C440.284106,759 426.719129,759 413.152441,759.003419 C412.781477,759.003419 412.403675,759.030771 412.044678,759.100861 C409.039356,759.675257 406.998198,762.160888 406.998198,765.219205 L406.998198,785.507693 C406.998198,792.256846 406.998198,799.005999 407.001617,805.755153 C407.001617,806.098765 407.02726,806.444086 407.069998,806.787698 C407.463186,809.72293 410.070191,811.99829 413.036195,812 C426.676391,812 440.318296,812 453.958492,811.99829 C454.192696,811.99829 454.42348,811.984614 454.657683,811.958972 C457.654457,811.606812 459.984522,808.989549 459.984522,805.972261 C459.989651,792.328646 459.989651,778.68674 459.986232,765.044834 C459.989651,764.867045 459.99307,764.694384 459.969137,764.520014 Z M433.493925,775.312163 C439.125057,775.310454 443.682616,779.861175 443.689454,785.497436 C443.696292,791.130278 439.145571,795.689546 433.51102,795.692965 C427.866211,795.694675 423.301814,791.131987 423.308652,785.490598 C423.31549,779.873141 427.876468,775.312163 433.493925,775.312163 Z M453.890112,781.704029 L453.890112,803.666129 C453.890112,805.043996 453.052451,805.890204 451.672875,805.890204 L417.704872,805.890204 C416.889435,805.890204 416.079126,805.891914 415.261979,805.890204 C413.984974,805.888495 413.118251,805.020063 413.118251,803.744767 C413.116542,796.390446 413.118251,789.036126 413.118251,781.680095 L413.118251,781.444183 L417.716838,781.444183 C416.687712,785.596587 417.159538,789.569493 419.192147,793.327001 C420.677713,796.069058 422.807765,798.200819 425.52418,799.734252 C430.888628,802.761797 437.562563,802.476309 442.670585,798.985485 C445.504956,797.046899 447.542694,794.468955 448.758157,791.256782 C449.966782,788.051447 450.124057,784.779441 449.279558,781.437345 L453.886693,781.437345 C453.890112,781.527949 453.890112,781.615134 453.890112,781.704029 Z M453.890112,773.224849 C453.886693,774.430055 452.999456,775.308744 451.789122,775.310454 L451.748093,775.310454 L448.790638,775.310454 C447.785445,775.310454 446.776833,775.312163 445.768221,775.308744 C444.607462,775.308744 443.70484,774.442022 443.698002,773.281263 C443.684325,771.238396 443.684325,769.195529 443.698002,767.156082 C443.70484,765.981647 444.604043,765.121762 445.785316,765.120053 C447.795702,765.118343 449.800959,765.118343 451.807926,765.120053 C452.997747,765.121762 453.888402,766.00558 453.891822,767.202238 C453.893531,769.212625 453.893531,771.217882 453.890112,773.224849 Z" id="Combined-Shape-Copy"></path>
        </g>
    </g>
</svg>