<?xml version="1.0" encoding="utf-8"?>
<!-- Generator: Adobe Illustrator 16.0.0, SVG Export Plug-In . SVG Version: 6.00 Build 0)  -->
<!DOCTYPE svg PUBLIC "-//W3C//DTD SVG 1.1//EN" "http://www.w3.org/Graphics/SVG/1.1/DTD/svg11.dtd">
<svg version="1.1" xmlns="http://www.w3.org/2000/svg" xmlns:xlink="http://www.w3.org/1999/xlink" x="0px" y="0px"
	 width="232.489px" height="232.489px" viewBox="0 0 232.489 232.489" enable-background="new 0 0 232.489 232.489"
	 xml:space="preserve">
<g id="Capa_1">
</g>
<g id="Capa_2">
	<g>
		<path d="M37.17,73.849h12.839c0.276,0,0.515,0.101,0.716,0.301c0.201,0.201,0.301,0.439,0.301,0.716v5.685
			c0,0.277-0.101,0.515-0.301,0.715c-0.201,0.201-0.439,0.301-0.716,0.301H28.021c-0.276,0-0.515-0.1-0.715-0.301
			c-0.201-0.2-0.301-0.438-0.301-0.715V56.228c0-0.276,0.1-0.514,0.301-0.715c0.201-0.201,0.439-0.301,0.715-0.301h8.133
			c0.276,0,0.514,0.101,0.715,0.301c0.201,0.201,0.301,0.439,0.301,0.715V73.849z"/>
		<path d="M62.623,81.567h-7.116c-0.226,0-0.421-0.081-0.583-0.245c-0.164-0.163-0.245-0.32-0.245-0.471s0.012-0.264,0.038-0.339
			l8.208-24.059c0.227-0.829,0.791-1.243,1.695-1.243h10.467c0.904,0,1.469,0.414,1.695,1.243l8.208,24.059
			c0.025,0.075,0.038,0.188,0.038,0.339s-0.082,0.308-0.245,0.471c-0.164,0.164-0.357,0.245-0.583,0.245h-7.116
			c-0.804,0-1.369-0.426-1.695-1.28l-0.941-2.635h-9.187l-0.941,2.635C63.99,81.141,63.426,81.567,62.623,81.567z M72.525,70.309
			l-2.673-7.832l-2.673,7.832H72.525z"/>
		<path d="M25.612,100.393h12.01c2.761,0,5.159,0.364,7.191,1.092c2.033,0.729,3.677,1.958,4.933,3.69
			c1.255,1.732,1.883,3.891,1.883,6.476v3.841c0,4.016-1.355,6.94-4.066,8.772c-2.485,1.657-5.798,2.485-9.94,2.485h-12.01
			c-0.277,0-0.515-0.1-0.716-0.301c-0.201-0.201-0.301-0.439-0.301-0.715v-24.323c0-0.276,0.1-0.514,0.301-0.715
			C25.097,100.493,25.335,100.393,25.612,100.393z M34.384,107.735v11.672h3.427c1.179,0,2.114-0.282,2.805-0.847
			s1.036-1.361,1.036-2.391v-5.196c0-1.029-0.346-1.827-1.036-2.391c-0.69-0.565-1.625-0.847-2.805-0.847H34.384z"/>
		<path d="M66.915,119.407h15.023c0.275,0,0.514,0.101,0.715,0.301c0.201,0.201,0.301,0.439,0.301,0.715v5.309
			c0,0.276-0.101,0.515-0.301,0.715c-0.201,0.201-0.44,0.301-0.715,0.301H58.142c-0.277,0-0.515-0.1-0.715-0.301
			c-0.201-0.201-0.301-0.439-0.301-0.715v-24.323c0-0.276,0.1-0.514,0.301-0.715c0.2-0.201,0.438-0.301,0.715-0.301h23.419
			c0.276,0,0.515,0.101,0.716,0.301c0.2,0.201,0.301,0.439,0.301,0.715v5.309c0,0.276-0.101,0.515-0.301,0.715
			c-0.201,0.201-0.439,0.301-0.716,0.301H66.915v2.372H79.49c0.276,0,0.515,0.101,0.716,0.301c0.201,0.201,0.301,0.439,0.301,0.715
			v4.895c0,0.277-0.101,0.515-0.301,0.716c-0.201,0.201-0.439,0.301-0.716,0.301H66.915V119.407z"/>
		<path d="M113.678,108.111h-6.815v10.919h6.815c0.276,0,0.514,0.101,0.715,0.301c0.201,0.201,0.301,0.439,0.301,0.715v5.686
			c0,0.276-0.101,0.515-0.301,0.715c-0.201,0.201-0.439,0.301-0.715,0.301H89.807c-0.276,0-0.515-0.1-0.715-0.301
			c-0.201-0.201-0.301-0.439-0.301-0.715v-5.686c0-0.276,0.1-0.514,0.301-0.715c0.201-0.201,0.439-0.301,0.715-0.301h6.89v-10.919
			h-6.89c-0.276,0-0.515-0.1-0.715-0.301c-0.201-0.201-0.301-0.439-0.301-0.715v-5.686c0-0.276,0.1-0.514,0.301-0.715
			c0.201-0.201,0.439-0.301,0.715-0.301h23.871c0.276,0,0.514,0.101,0.715,0.301c0.201,0.201,0.301,0.439,0.301,0.715v5.686
			c0,0.276-0.101,0.515-0.301,0.715C114.192,108.011,113.954,108.111,113.678,108.111z"/>
		<path d="M147.714,125.506c0.075,0.101,0.113,0.251,0.113,0.452c0,0.201-0.082,0.383-0.245,0.546
			c-0.164,0.163-0.358,0.245-0.584,0.245h-8.095c-0.678,0-1.192-0.289-1.544-0.866l-3.652-5.61l-3.577,5.61
			c-0.376,0.578-0.891,0.866-1.544,0.866h-8.132c-0.226,0-0.421-0.082-0.584-0.245s-0.245-0.345-0.245-0.546
			c0-0.201,0.038-0.351,0.113-0.452l8.321-12.726l-7.417-11.145c-0.076-0.1-0.113-0.25-0.113-0.452c0-0.201,0.082-0.382,0.245-0.546
			c0.163-0.163,0.358-0.245,0.584-0.245h8.132c0.652,0,1.18,0.314,1.582,0.941l2.937,4.82l3.163-4.895
			c0.427-0.577,0.941-0.866,1.544-0.866h8.095c0.226,0,0.42,0.082,0.583,0.245c0.163,0.164,0.245,0.346,0.245,0.546
			c0,0.201-0.037,0.352-0.113,0.452l-7.869,11.634L147.714,125.506z"/>
		<path d="M158.633,126.749h-7.116c-0.226,0-0.42-0.082-0.583-0.245c-0.164-0.163-0.245-0.32-0.245-0.471
			c0-0.151,0.012-0.264,0.038-0.339l8.208-24.059c0.226-0.828,0.791-1.243,1.694-1.243h10.467c0.903,0,1.468,0.415,1.694,1.243
			l8.208,24.059c0.025,0.076,0.038,0.188,0.038,0.339c0,0.15-0.082,0.308-0.245,0.471c-0.164,0.163-0.358,0.245-0.584,0.245h-7.116
			c-0.804,0-1.369-0.427-1.694-1.28l-0.941-2.636h-9.187l-0.941,2.636C160,126.322,159.436,126.749,158.633,126.749z
			 M168.536,115.491l-2.674-7.832l-2.673,7.832H168.536z"/>
		<path d="M190.561,110.559h14.42c0.276,0,0.514,0.101,0.716,0.301c0.2,0.202,0.301,0.439,0.301,0.715v5.347
			c0,0.276-0.101,0.515-0.301,0.715c-0.202,0.201-0.44,0.301-0.716,0.301h-14.42c-0.276,0-0.515-0.1-0.715-0.301
			c-0.201-0.201-0.301-0.439-0.301-0.715v-5.347c0-0.276,0.1-0.514,0.301-0.715C190.046,110.659,190.285,110.559,190.561,110.559z"
			/>
		<path d="M92.077,64.699h14.42c0.276,0,0.515,0.101,0.716,0.301c0.201,0.201,0.301,0.439,0.301,0.715v5.347
			c0,0.276-0.101,0.515-0.301,0.715c-0.201,0.201-0.44,0.301-0.716,0.301h-14.42c-0.276,0-0.515-0.1-0.715-0.301
			c-0.201-0.201-0.301-0.439-0.301-0.715v-5.347c0-0.276,0.1-0.514,0.301-0.715C91.562,64.8,91.801,64.699,92.077,64.699z"/>
		<path d="M105.647,64.699h90.251c1.726,0,3.22,0.101,4.479,0.301c1.255,0.201,1.885,0.439,1.885,0.715v5.347
			c0,0.276-0.63,0.515-1.885,0.715c-1.259,0.201-2.753,0.301-4.479,0.301h-90.251c-1.729,0-3.221-0.1-4.475-0.301
			c-1.259-0.201-1.885-0.439-1.885-0.715v-5.347c0-0.276,0.626-0.514,1.885-0.715C102.426,64.8,103.918,64.699,105.647,64.699z"/>
		<path d="M190.561,64.699h14.42c0.276,0,0.514,0.101,0.716,0.301c0.2,0.201,0.301,0.439,0.301,0.715v5.347
			c0,0.276-0.101,0.515-0.301,0.715c-0.202,0.201-0.44,0.301-0.716,0.301h-14.42c-0.276,0-0.515-0.1-0.715-0.301
			c-0.201-0.201-0.301-0.439-0.301-0.715v-5.347c0-0.276,0.1-0.514,0.301-0.715C190.046,64.8,190.285,64.699,190.561,64.699z"/>
		<path d="M37.17,164.212h12.839c0.276,0,0.515,0.101,0.716,0.301c0.201,0.201,0.301,0.439,0.301,0.716v5.685
			c0,0.277-0.101,0.515-0.301,0.715c-0.201,0.201-0.439,0.301-0.716,0.301H28.021c-0.276,0-0.515-0.1-0.715-0.301
			c-0.201-0.201-0.301-0.438-0.301-0.715v-24.323c0-0.276,0.1-0.514,0.301-0.715c0.201-0.201,0.439-0.301,0.715-0.301h8.133
			c0.276,0,0.514,0.101,0.715,0.301c0.201,0.201,0.301,0.439,0.301,0.715V164.212z"/>
		<path d="M69.174,164.212h12.839c0.276,0,0.514,0.101,0.715,0.301c0.2,0.201,0.301,0.439,0.301,0.716v5.685
			c0,0.277-0.101,0.515-0.301,0.715c-0.201,0.201-0.439,0.301-0.715,0.301H60.025c-0.277,0-0.515-0.1-0.716-0.301
			c-0.201-0.201-0.301-0.438-0.301-0.715v-24.323c0-0.276,0.1-0.514,0.301-0.715c0.201-0.201,0.439-0.301,0.716-0.301h8.133
			c0.275,0,0.514,0.101,0.715,0.301c0.201,0.201,0.301,0.439,0.301,0.715V164.212z"/>
		<path d="M98.918,164.588h15.023c0.276,0,0.514,0.101,0.715,0.302c0.201,0.201,0.301,0.439,0.301,0.715v5.309
			c0,0.277-0.101,0.515-0.301,0.715c-0.201,0.201-0.439,0.301-0.715,0.301H90.145c-0.276,0-0.514-0.1-0.715-0.301
			c-0.201-0.201-0.301-0.438-0.301-0.715v-24.323c0-0.276,0.1-0.514,0.301-0.715c0.201-0.201,0.438-0.301,0.715-0.301h23.42
			c0.276,0,0.514,0.101,0.715,0.301c0.2,0.201,0.301,0.439,0.301,0.715v5.309c0,0.277-0.101,0.515-0.301,0.716
			c-0.201,0.201-0.439,0.301-0.715,0.301H98.918v2.372h12.576c0.275,0,0.514,0.101,0.715,0.301c0.2,0.201,0.301,0.439,0.301,0.715
			v4.895c0,0.276-0.101,0.515-0.301,0.715c-0.202,0.201-0.44,0.301-0.715,0.301H98.918V164.588z"/>
		<path d="M148.693,170.764c0.05,0.101,0.075,0.239,0.075,0.414c0,0.176-0.082,0.345-0.245,0.508
			c-0.164,0.164-0.358,0.245-0.584,0.245h-8.547c-0.753,0-1.28-0.313-1.581-0.941l-3.313-7.456h-3.163v7.38
			c0,0.277-0.101,0.515-0.301,0.715c-0.201,0.201-0.439,0.301-0.715,0.301h-8.133c-0.276,0-0.515-0.1-0.715-0.301
			c-0.201-0.201-0.301-0.438-0.301-0.715v-24.323c0-0.276,0.1-0.514,0.301-0.715c0.201-0.201,0.439-0.301,0.715-0.301h14.646
			c3.439,0,6.162,0.816,8.17,2.447c2.008,1.632,3.012,3.854,3.012,6.665c0,3.414-1.318,5.886-3.954,7.417L148.693,170.764z
			 M131.336,152.578v3.991h4.707c0.552,0,0.979-0.182,1.28-0.546c0.301-0.364,0.452-0.822,0.452-1.374
			c0-0.552-0.145-1.036-0.433-1.45c-0.289-0.414-0.722-0.621-1.299-0.621H131.336z"/>
		<path d="M177.685,153.293h-6.815v10.919h6.815c0.276,0,0.514,0.101,0.715,0.301c0.201,0.201,0.301,0.439,0.301,0.716v5.685
			c0,0.277-0.101,0.515-0.301,0.715c-0.201,0.201-0.439,0.301-0.715,0.301h-23.871c-0.277,0-0.515-0.1-0.715-0.301
			c-0.201-0.201-0.301-0.438-0.301-0.715v-5.685c0-0.276,0.1-0.515,0.301-0.716c0.201-0.2,0.438-0.301,0.715-0.301h6.891v-10.919
			h-6.891c-0.277,0-0.515-0.1-0.715-0.301c-0.201-0.201-0.301-0.439-0.301-0.715v-5.686c0-0.276,0.1-0.514,0.301-0.715
			c0.201-0.201,0.438-0.301,0.715-0.301h23.871c0.276,0,0.514,0.101,0.715,0.301c0.201,0.201,0.301,0.439,0.301,0.715v5.686
			c0,0.276-0.101,0.515-0.301,0.715C178.199,153.193,177.96,153.293,177.685,153.293z"/>
		<path d="M190.636,171.931h-7.116c-0.226,0-0.42-0.081-0.583-0.245c-0.164-0.163-0.245-0.32-0.245-0.471s0.012-0.264,0.038-0.339
			l8.208-24.059c0.226-0.829,0.791-1.243,1.694-1.243h10.467c0.903,0,1.468,0.414,1.694,1.243l8.208,24.059
			c0.025,0.075,0.038,0.188,0.038,0.339s-0.082,0.308-0.245,0.471c-0.164,0.164-0.358,0.245-0.583,0.245h-7.117
			c-0.803,0-1.368-0.426-1.694-1.28l-0.942-2.635h-9.187l-0.941,2.635C192.004,171.504,191.439,171.931,190.636,171.931z
			 M200.539,160.673l-2.673-7.832l-2.673,7.832H200.539z"/>
	</g>
</g>
</svg>
