<?xml version="1.0" encoding="UTF-8"?>
<svg width="99px" height="99px" viewBox="0 0 99 99" version="1.1" xmlns="http://www.w3.org/2000/svg" xmlns:xlink="http://www.w3.org/1999/xlink">
    <!-- Generator: Sketch 41.2 (35397) - http://www.bohemiancoding.com/sketch -->
    <title>behance-logo copy 2</title>
    <desc>Created with Sketch.</desc>
    <defs></defs>
    <g id="Atomic-Design" stroke="none" stroke-width="1" fill="none" fill-rule="evenodd">
        <g id="Desktop" transform="translate(-106.000000, -736.000000)" fill="#F1C921">
            <g id="behance-logo-copy-2" transform="translate(106.000000, 736.000000)">
                <g id="behance-logo">
                    <path d="M49.5,99 C76.8380951,99 99,76.8380951 99,49.5 C99,22.1619049 76.8380951,0 49.5,0 C22.1619049,0 0,22.1619049 0,49.5 C0,76.8380951 22.1619049,99 49.5,99 Z M78.283935,33.9740299 L61.2803063,33.9740299 L61.2803063,29.7787313 L78.285355,29.7787313 L78.285355,33.9740299 L78.283935,33.9740299 Z M49.960594,51.1775746 C51.0577448,52.8655672 51.6060046,54.9151045 51.6060046,57.3213284 C51.6060046,59.8096716 50.9878515,62.0419403 49.7302459,64.0137463 C48.930181,65.3185672 47.9368445,66.4207537 46.7432947,67.3080821 C45.3990719,68.3342612 43.8076195,69.0379179 41.9780882,69.4138806 C40.1427193,69.7904701 38.1562042,69.9807239 36.0163341,69.9807239 L17,69.9807239 L17,28.038709 L37.3921114,28.038709 C42.5321856,28.1217687 46.1762599,29.6010149 48.3281206,32.5060672 C49.6193318,34.2877761 50.2590998,36.4257015 50.2590998,38.9107537 C50.2590998,41.4749478 49.6116009,43.5266791 48.307768,45.0855373 C47.5824872,45.9595448 46.5110534,46.7545672 45.0926775,47.4721716 C47.2410673,48.253403 48.871174,49.4836269 49.960594,51.1775746 Z M26.7380418,44.5743284 L35.6730209,44.5743284 C37.5091787,44.5743284 38.9935035,44.2276716 40.1367239,43.5346716 C41.2791555,42.8427687 41.8491879,41.6128582 41.8491879,39.8469776 C41.8491879,37.8960149 41.0944037,36.6010672 39.5812065,35.977806 C38.280529,35.5447985 36.6163434,35.321791 34.5970116,35.321791 L26.7380418,35.321791 L26.7380418,44.5743284 Z M42.709522,56.7222015 C42.709522,54.5435299 41.813058,53.0373284 40.0237587,52.2291418 C39.0231647,51.769806 37.6114153,51.5350448 35.80129,51.5182761 L26.7380418,51.5182761 L26.7380418,62.6956045 L35.6610302,62.6956045 C37.4941903,62.6956045 38.9130394,62.4572388 39.9369838,61.9599776 C41.7835545,61.045694 42.709522,59.3056716 42.709522,56.7222015 Z M84.5927889,49.8989254 C84.7982088,51.2711343 84.8911369,53.2620597 84.8534292,55.8643358 L62.8318422,55.8643358 C62.9533271,58.8836343 64.0026729,60.9950746 65.9928167,62.2033582 C67.192993,62.9610821 68.6481299,63.3310896 70.3520742,63.3310896 C72.1487889,63.3310896 73.6132343,62.879903 74.7405197,61.9524552 C75.3547285,61.4608358 75.8965197,60.7668955 76.3649466,59.8913209 L84.436594,59.8913209 C84.2251787,61.674597 83.2532993,63.4832612 81.5067564,65.3212313 C78.8007981,68.2425821 75.0057355,69.7074104 70.1318237,69.7074104 C66.1054664,69.7074104 62.5570023,68.4720149 59.4769652,66.0101567 C56.4071833,63.5396791 54.8654292,59.5330672 54.8654292,53.9751194 C54.8654292,48.7632015 56.2495684,44.7739851 59.0271555,41.9972836 C61.8149977,39.2154104 65.4128445,37.8308209 69.8476752,37.8308209 C72.4763248,37.8308209 74.8459118,38.2975224 76.9599072,39.2357836 C79.0672761,40.1749851 80.8089281,41.6531343 82.1806032,43.6846493 C83.4219582,45.4737239 84.2202877,47.5423806 84.5927889,49.8989254 Z M76.6478329,50.6815672 C76.4998422,48.593791 75.7980696,47.0136194 74.5344687,45.9336866 C73.2812807,44.8507761 71.715703,44.3071269 69.8476752,44.3071269 C67.8146172,44.3071269 66.2447796,44.8882313 65.1293271,46.0303806 C64.0063016,47.1701791 63.3075267,48.719791 63.0211694,50.6817239 L76.6478329,50.6817239 L76.6478329,50.6815672 Z" id="Combined-Shape"></path>
                </g>
            </g>
        </g>
    </g>
</svg>