<?xml version="1.0" encoding="UTF-8"?>
<svg width="117px" height="137px" viewBox="0 0 117 137" version="1.1" xmlns="http://www.w3.org/2000/svg" xmlns:xlink="http://www.w3.org/1999/xlink">
    <!-- Generator: Sketch 41.2 (35397) - http://www.bohemiancoding.com/sketch -->
    <title>Page 1</title>
    <desc>Created with Sketch.</desc>
    <defs></defs>
    <g id="Symbols" stroke="none" stroke-width="1" fill="none" fill-rule="evenodd">
        <g id="Icono-explicación" transform="translate(-6.000000, 0.000000)" fill="#1C1C1B">
            <g id="Page-1" transform="translate(6.000000, 0.000000)">
                <path d="M51.822439,114.872217 L67.4747561,114.872217 L67.4747561,111.104717 L51.822439,111.104717 L51.822439,114.872217 Z M50.2272439,120.8203 C47.8929512,120.095342 45.7669756,118.962237 45.4388049,116.673196 C45.0963659,114.284258 45.0079024,111.781154 45.4273902,109.41505 C45.8497317,106.966175 47.9471707,105.37355 50.7979756,105.299342 C56.6765122,105.153779 62.5693171,105.116675 68.4392927,105.296487 C71.8437073,105.404946 74.0980976,107.77105 74.2464878,110.78505 C74.3206829,112.272071 74.3435122,113.7648 74.2350732,115.246112 C74.0581463,117.866237 72.5628293,119.678633 69.7262927,120.577696 C69.5579268,120.634779 69.398122,120.740383 69.2383171,120.8203 L50.2272439,120.8203 Z" id="Fill-1"></path>
                <path d="M52.5957805,131.688967 L66.2277073,131.688967 L66.2277073,128.640717 L52.5957805,128.640717 L52.5957805,131.688967 Z M51.2003415,136.498237 C49.1656829,135.910279 47.3165122,134.996946 47.0282927,133.141737 C46.7315122,131.212321 46.6573171,129.191571 47.0225854,127.279279 C47.3878537,125.298487 49.2141951,124.014112 51.696878,123.951321 C56.8220488,123.8343 61.9557805,123.805758 67.0752439,123.951321 C70.0344878,124.036946 72.0006585,125.949237 72.1262195,128.383842 C72.1947073,129.585446 72.2146829,130.792758 72.1176585,131.991508 C71.9664146,134.106446 70.6622927,135.576342 68.1910244,136.3013 C68.0426341,136.346967 67.9085122,136.432592 67.7658293,136.498237 L51.2003415,136.498237 Z" id="Fill-3"></path>
                <path d="M60.5706146,0 C62.3855415,0.833416667 63.0590049,2.22625 63.0047854,4.22702083 C62.9049073,8.30847917 62.9819561,12.3927917 62.9762488,16.47425 C62.9762488,18.6377083 61.6692732,20.1447083 59.7630293,20.1989375 C57.8111268,20.2617292 56.3329317,18.7575833 56.3129561,16.5456042 C56.2701512,12.2615 56.3129561,7.97739583 56.2901268,3.69614583 C56.2844195,1.935125 57.1947366,0.804875 58.6501024,0 L60.5706146,0 Z" id="Fill-4"></path>
                <path d="M69.4911512,95.8235083 C69.4911512,95.16705 69.5282488,94.6104875 69.4911512,94.0567792 C69.1715415,89.4216125 70.7410537,85.388675 73.4948341,81.7753 C75.6151024,79.00105 77.9065902,76.3752167 80.0268585,73.6095292 C86.3505659,65.3781125 87.7260293,56.3018625 83.5853707,46.8288833 C77.047639,31.8644875 59.3949073,26.6385083 45.5318341,35.2723625 C33.1612244,42.9786125 29.6826146,60.3747583 38.2464439,72.1653208 C40.6007122,75.4019458 43.3088341,78.3759875 45.7287366,81.5726542 C48.057322,84.6523 49.6724927,88.0630292 49.6411024,92.0645708 C49.6296878,93.2975708 49.6382488,94.533425 49.6382488,95.8235083 L69.4911512,95.8235083 Z M59.6888341,102.533654 C56.4784683,102.533654 53.2709561,102.585029 50.0634439,102.519383 C45.8057854,102.430904 43.2317854,99.8535917 43.0234683,95.6037375 C43.017761,95.4867167 43.0034927,95.3611333 43.017761,95.2412583 C43.719761,90.1694042 41.2741756,86.33055 38.2150537,82.6515292 C35.763761,79.7060292 33.2382732,76.7434042 31.2492732,73.4839458 C27.2398829,66.9222167 26.0128098,59.6811958 27.314078,52.1033833 C29.3144927,40.4640917 35.7780293,32.0528625 46.5077854,27.2635708 C56.3243707,22.8795708 66.1866146,23.4133 75.6036878,28.6221542 C84.2759561,33.431425 89.7635415,40.8579667 91.7639561,50.5507167 C93.9241756,61.0226542 91.3587366,70.4528208 84.5071024,78.7156333 C82.3326146,81.3329042 80.2580049,84.0358 78.2119317,86.7501125 C76.6338585,88.8393625 75.9518341,91.211175 76.1715659,93.8569875 C76.2657366,95.0100708 76.2914195,96.2059667 76.0916634,97.3305083 C75.5352,100.461529 73.1210049,102.439467 69.7879317,102.505113 C66.4234683,102.573613 63.0532976,102.519383 59.6888341,102.519383 L59.6888341,102.533654 Z" id="Fill-5"></path>
                <path d="M91.0913488,30.4062937 C89.2593,30.3520646 88.2662268,29.6956062 87.7040561,28.4568979 C87.1190561,27.1611062 87.2902756,25.9109812 88.2747878,24.8891896 C89.5475195,23.5677104 90.9115683,22.3118771 92.2413732,21.0389187 C94.298861,19.0695437 96.3249585,17.0716271 98.4395195,15.1593354 C100.497007,13.3069812 103.47052,14.2945229 104.021276,16.9603146 C104.263837,18.1133979 103.867178,19.1266271 103.048178,19.9143771 C99.7065439,23.1452937 96.3506415,26.3733562 92.9348122,29.5272104 C92.3612268,30.0580854 91.473739,30.2321896 91.0913488,30.4062937" id="Fill-6"></path>
                <path d="M13.3876537,16.72085 C13.6302146,15.21385 14.3065317,14.237725 15.5193366,13.6497667 C16.7549707,13.0475375 17.9706293,13.2016625 18.9865317,14.0893083 C20.4304829,15.3537042 21.7888244,16.7122875 23.1842634,18.0366208 C25.1789707,19.94035 27.1850927,21.841225 29.1683854,23.759225 C30.1386293,24.6953917 30.5067512,25.8427667 30.1186537,27.1471208 C29.747678,28.4001 28.8830195,29.1992667 27.6017268,29.4647042 C26.480239,29.7016 25.4472146,29.3876417 24.6225073,28.6056 C21.2780195,25.437475 17.930678,22.2807667 14.654678,19.0469958 C14.0582634,18.450475 13.8042878,17.5057458 13.3876537,16.72085" id="Fill-7"></path>
                <path d="M9.81230488,54.892475 C7.68918293,54.892475 5.56891463,54.9153083 3.4515,54.8867667 C1.5309878,54.8639333 0.129841463,53.5624333 0.00713414634,51.7528917 C-0.109865854,50.0261208 1.23991463,48.3621417 3.1347439,48.3278917 C7.65208537,48.2451208 12.1751341,48.282225 16.6953293,48.3878292 C18.3475976,48.419225 19.6231829,50.0032875 19.614622,51.6358708 C19.606061,53.3141208 18.2534268,54.8154125 16.5326707,54.87535 C14.2925488,54.9495583 12.0524268,54.8896208 9.81230488,54.892475" id="Fill-8"></path>
                <path d="M106.493971,54.9258688 C104.450751,54.9258688 102.413239,54.9458479 100.37002,54.9173063 C98.2297756,54.8859104 96.705922,53.4873688 96.7230439,51.6093271 C96.7287512,49.7569729 98.1812634,48.3384521 100.26158,48.3070563 C104.425068,48.2499729 108.585702,48.2242854 112.746337,48.2642438 C114.729629,48.2813688 116.002361,49.4144729 116.284873,51.1840563 C116.51602,52.6396813 115.608556,54.1580979 114.141776,54.6747021 C113.699459,54.8316813 113.205776,54.8802021 112.737776,54.8859104 C110.654605,54.9087438 108.574288,54.8973271 106.493971,54.8973271 L106.493971,54.9258688 Z" id="Fill-9"></path>
            </g>
        </g>
    </g>
</svg>