<?xml version="1.0" encoding="UTF-8"?>
<svg width="112px" height="104px" viewBox="0 0 112 104" version="1.1" xmlns="http://www.w3.org/2000/svg" xmlns:xlink="http://www.w3.org/1999/xlink">
    <!-- Generator: Sketch 41.2 (35397) - http://www.bohemiancoding.com/sketch -->
    <title>Page 1</title>
    <desc>Created with Sketch.</desc>
    <defs>
        <polygon id="path-1" points="69.2290454 0.00440406107 0.223128807 0.00440406107 0.223128807 64.1018546 69.2290454 64.1018546 69.2290454 0.00440406107"></polygon>
    </defs>
    <g id="Home" stroke="none" stroke-width="1" fill="none" fill-rule="evenodd">
        <g id="Mobile-Portrait" transform="translate(-104.000000, -1596.000000)">
            <g id="Contacto" transform="translate(19.000000, 1596.000000)">
                <g id="Page-1" transform="translate(85.000000, 0.000000)">
                    <path d="M0,78.9047225 C0.461808301,77.1655117 0.801096033,75.3770115 1.42076738,73.6941314 C2.33967165,71.1874147 3.89238425,69.0398062 5.79145308,67.1503802 C14.5021944,58.4754503 23.217648,49.8028675 31.9213207,41.1185491 C32.6729373,40.3674729 33.5070196,39.8440667 34.6073486,39.9144801 C35.8325543,39.9942819 36.7514586,40.5951429 37.258034,41.7076745 C37.7646094,42.8131647 37.6538697,43.8998781 36.9046093,44.8786242 C36.6195134,45.2494681 36.2755133,45.5780639 35.9409379,45.911354 C27.4398953,54.3820851 18.9223595,62.8434277 10.4307416,71.3258943 C5.84093254,75.9074591 4.73824742,82.3761027 8.19945351,87.4646438 C10.9420293,91.4899428 14.1958929,95.3040015 19.0401678,97.0103527 C23.7265796,98.6627203 28.0996214,97.7356107 31.8364988,94.463735 C33.9075677,92.6494166 35.785431,90.6215109 37.7410478,88.6781013 C44.6540353,81.7963658 51.5646667,74.9122831 58.4705857,68.0211591 C64.0594086,62.4467656 64.3044498,55.1918391 59.1091064,49.2865026 C57.7943664,47.7913915 57.7896541,45.9395193 59.0996817,44.7307561 C60.447408,43.4867862 62.3323398,43.6463899 63.7295456,45.1274182 C70.7674098,52.5818493 70.9205605,63.9371824 63.8449976,71.3704895 C58.3197912,77.172553 52.5306943,82.7258225 46.8594056,88.3870593 C43.647953,91.5885215 40.4435688,94.794678 37.2250477,97.9844046 C29.1598956,105.981019 17.3107428,106.018573 9.29035781,97.9867518 C7.01901495,95.7123992 4.83249401,93.3253852 2.87452106,90.7858088 C1.24641118,88.67106 0.537205575,86.0751529 0.197917843,83.4158738 C0.169643866,83.2093278 0.0659726145,83.0145175 0,82.8150128 L0,78.9047225 Z" id="Fill-1" fill="#1C1C1B"></path>
                    <g id="Group-5" transform="translate(42.410966, 0.359812)">
                        <mask id="mask-2" fill="white">
                            <use xlink:href="#path-1"></use>
                        </mask>
                        <g id="Clip-4"></g>
                        <path d="M0.223128807,45.7850793 C0.284389092,40.3562067 2.18110176,35.7887247 5.94860928,32.0239553 C14.7182547,23.2551409 23.4737631,14.4675495 32.3140934,5.76914848 C39.9810537,-1.77447294 51.42259,-1.9293824 59.2992489,5.38891617 C61.9734959,7.86981468 64.7254964,10.3155065 66.6269214,13.521663 C70.7855523,20.5465724 69.9043467,29.7918508 64.3791402,35.8333199 C62.5719618,37.8119362 60.6234135,39.6661555 58.7243447,41.5602758 C51.6110831,48.6532515 44.4836846,55.7368387 37.3774916,62.8345087 C36.4774366,63.733453 35.5066967,64.3131899 34.1801759,64.0291892 C31.965381,63.5574195 30.9710795,60.9967191 32.3188057,59.1824007 C32.5968332,58.8045155 32.9479017,58.4806139 33.2777648,58.1473239 C41.8070814,49.6484274 50.3481788,41.1589194 58.8680707,32.6482874 C63.4366743,28.0831525 64.5205101,21.5628724 61.0404547,16.5024966 C58.300235,12.5217928 55.0770016,8.72885807 50.27985,7.02015975 C45.5109725,5.32084989 41.0130539,6.20805863 37.3209436,9.66300907 C32.794751,13.8995482 28.4876818,18.3684515 24.0910783,22.7411231 C19.6143651,27.1912495 15.1423643,31.643723 10.677432,36.1032379 C5.21819819,41.5579286 4.99907486,48.892657 10.1119525,54.682985 C11.4950212,56.2461623 11.5020897,58.0722162 10.1284456,59.3114919 C8.77600704,60.5319907 6.90756835,60.3418746 5.4985818,58.8491107 C2.00674556,55.1453662 0.293813751,50.7351408 0.223128807,45.7850793" id="Fill-3" fill="#1C1C1B" mask="url(#mask-2)"></path>
                    </g>
                    <path d="M24.1231221,15.030622 C24.5849304,15.2934986 25.1268483,15.4742263 25.4920538,15.8333346 C28.039068,18.3189274 30.5601643,20.8350326 33.0694798,23.3628734 C33.9389047,24.2383466 33.986028,25.4236387 33.2532607,26.1254255 C32.5393428,26.8107825 31.4013152,26.7685344 30.5483835,25.9306151 C27.9872324,23.4121628 25.4496429,20.8655451 22.9120534,18.3236216 C22.3159437,17.7251078 22.1015327,17.0021969 22.4313958,16.1994843 C22.721204,15.5023917 23.2772589,15.1620603 24.1231221,15.030622" id="Fill-6" fill="#1C1C1B"></path>
                    <path d="M75.001438,81.2884505 C74.9990818,79.7158847 76.2831916,78.8897009 77.4706987,79.4342312 C77.7864248,79.5774051 78.0785892,79.8121164 78.3259865,80.0609104 C80.7905349,82.4995608 83.2527271,84.9405584 85.6937138,87.4003329 C86.8529469,88.5715424 86.7422072,89.8648017 85.4887275,90.5384231 C84.666426,90.9820275 83.9407272,90.702721 83.3634669,90.1370668 C80.7269184,87.5528953 78.1092193,84.9429056 75.5221504,82.3117918 C75.2087805,81.9949315 75.0956846,81.4785667 75.001438,81.2884505" id="Fill-8" fill="#1C1C1B"></path>
                    <path d="M23.9690289,34.1537257 C22.2160423,34.1537257 20.4654119,34.1654613 18.7124252,34.1490315 C17.4448086,34.1372959 16.679055,33.494187 16.6366441,32.4544159 C16.5871646,31.3653554 17.3387812,30.5767254 18.6299595,30.5626427 C22.2325355,30.5250889 25.8351114,30.527436 29.4376874,30.5626427 C30.6652493,30.5767254 31.4239343,31.3442314 31.4215782,32.374614 C31.419222,33.4519389 30.6299068,34.1372959 29.3222353,34.1490315 C27.5409748,34.1654613 25.7550018,34.1537257 23.9690289,34.1537257" id="Fill-10" fill="#1C1C1B"></path>
                    <path d="M67.8594312,90.3973616 C67.8594312,88.5548779 67.8452942,86.7123941 67.8641436,84.8699103 C67.8735682,84.0132141 68.2741162,83.3607166 69.1176232,83.1072284 C69.8598151,82.8842527 70.5878701,83.0344679 71.0166921,83.7127836 C71.2758702,84.1258755 71.4478702,84.6680586 71.4525826,85.153911 C71.4902812,88.6464153 71.4832127,92.1365724 71.4667195,95.6290767 C71.4620072,96.5585335 71.1674866,97.3753288 70.1731851,97.6781064 C69.4309932,97.9057764 68.7005821,97.7602553 68.2788286,97.0819397 C68.0220066,96.6688478 67.885349,96.1219704 67.8712121,95.6314238 C67.8240888,93.8898659 67.8523627,92.1436138 67.8523627,90.3973616 L67.8594312,90.3973616 Z" id="Fill-12" fill="#1C1C1B"></path>
                    <path d="M37.3167025,15.4397238 C37.3167025,13.6911245 37.3049217,11.9448724 37.3214148,10.1962732 C37.3308395,8.94291478 38.0800999,8.06040027 39.0956069,8.05570604 C40.1064016,8.05101181 40.9145662,8.91944365 40.926347,10.1610665 C40.954621,13.6887774 40.9522648,17.2164884 40.926347,20.7441993 C40.9192785,22.0022519 40.1488126,22.8566011 39.1285932,22.8706838 C38.0494698,22.8871136 37.3308395,22.0327644 37.3190587,20.6831744 C37.3072779,18.9345751 37.3167025,17.188323 37.3167025,15.4397238" id="Fill-14" fill="#1C1C1B"></path>
                    <path d="M84.6930507,75.2326641 C82.7798448,75.2326641 80.8619267,75.2608294 78.9487209,75.2185814 C78.0062549,75.1998045 77.4619809,74.6036378 77.3300356,73.7070406 C77.2192959,72.9395346 77.549159,72.3058141 78.2583646,71.9631355 C78.5952961,71.8035319 79.007625,71.7354656 79.3869675,71.7307713 C82.9565572,71.7166887 86.5261469,71.7073002 90.0980927,71.7307713 C91.3421477,71.7401598 92.1291068,72.4583764 92.1479561,73.4699821 C92.1668054,74.5074061 91.3515724,75.2373583 90.0462571,75.2608294 C88.2649965,75.2889948 86.4790236,75.2678708 84.6930507,75.2678708 L84.6930507,75.2326641 Z" id="Fill-16" fill="#1C1C1B"></path>
                </g>
            </g>
        </g>
    </g>
</svg>