<?xml version="1.0" encoding="UTF-8"?>
<svg width="99px" height="99px" viewBox="0 0 99 99" version="1.1" xmlns="http://www.w3.org/2000/svg" xmlns:xlink="http://www.w3.org/1999/xlink">
    <!-- Generator: Sketch 41.2 (35397) - http://www.bohemiancoding.com/sketch -->
    <title>logo scribd</title>
    <desc>Created with Sketch.</desc>
    <defs></defs>
    <g id="Atomic-Design" stroke="none" stroke-width="1" fill="none" fill-rule="evenodd">
        <g id="Desktop" transform="translate(-245.000000, -608.000000)" fill="#B9B7B7">
            <g id="logo-scribd" transform="translate(245.000000, 608.000000)">
                <path d="M49.5,99 C76.8380951,99 99,76.8380951 99,49.5 C99,22.1619049 76.8380951,0 49.5,0 C22.1619049,0 0,22.1619049 0,49.5 C0,76.8380951 22.1619049,99 49.5,99 Z M61.6008021,70.6827865 C61.1727273,71.1976381 60.7160428,71.707464 60.205615,72.1917657 C56.9262032,75.3192274 52.9541444,76.883355 48.2895722,76.883355 C43.7471925,76.883355 39.7291444,75.6638724 36.2471925,73.2160464 C32.7680481,70.7686172 30.0897059,67.1030278 28.2145722,62.2129304 L28.3546791,62.1739165 C28.1998663,61.6443852 28.090107,61.0936937 28.090107,60.5104687 C28.090107,57.1248538 30.8830214,54.3806543 34.3272727,54.3806543 C37.7727273,54.3806543 40.5631016,57.1248538 40.5631016,60.5104687 C40.5631016,62.2490348 39.8204545,63.8058886 38.6438503,64.9248608 C41.1081551,67.7325406 44.230615,69.1707657 48.0338235,69.1707657 C50.7364973,69.1707657 52.9830214,68.3762042 54.7712567,66.7872135 C56.5631016,65.201 57.4566845,63.1929072 57.4566845,60.7711346 C57.4566845,59.320478 56.9887701,57.8670441 56.0502674,56.4030302 C55.1106952,54.9391485 53.9450535,53.7342135 52.5497326,52.7886218 C51.1581551,51.8398561 48.9360963,50.7506404 45.8985294,49.5278515 C42.8546791,48.3017564 40.5191176,47.1774942 38.8768717,46.1599582 C37.2360963,45.137529 35.8156417,43.9241299 34.6176471,42.5152645 C33.4251337,41.1056056 32.5454545,39.7005754 31.9887701,38.3057285 C31.4335561,36.9077077 31.1536096,35.4149954 31.1536096,33.8233596 C31.1536096,29.9956311 32.7171123,26.7364478 35.8447861,24.0419745 C38.9729947,21.3468399 42.7668449,20 47.2263369,20 C50.1814171,20 53.1812834,20.6289838 56.2197861,21.8872158 C58.7491979,22.9300116 60.901738,24.4551253 62.7200535,26.4071439 C64.0215241,27.5332575 64.8601604,29.1627169 64.8601604,30.996239 C64.8601604,34.3844988 62.067246,37.1289629 58.6220588,37.1289629 C55.1790107,37.1289629 52.384893,34.3844988 52.384893,30.996239 C52.384893,30.0975963 52.5958556,29.2513248 52.9463904,28.4820232 C51.6935829,27.8685128 50.0252674,27.5447633 47.8875668,27.5447633 C45.2220588,27.5447633 43.0580214,28.1369814 41.4012032,29.3202274 C39.7411765,30.5077053 38.9120321,32.0297773 38.9120321,33.8999327 C38.9120321,35.5164316 39.6398396,36.9419606 41.0868984,38.1794292 C42.5347594,39.4237749 45.0016043,40.7788144 48.4931818,42.2520858 C51.9824866,43.7241671 54.6986631,45.0962668 56.6415775,46.3699722 C58.584492,47.6390487 60.176738,49.0428886 61.4284759,50.5803016 C62.6763369,52.1166566 63.6046791,53.7346102 64.2137701,55.4373364 C64.2537433,55.5447239 64.2663102,55.6646752 64.3037433,55.7717981 C61.6617647,57.9346241 59.9423797,61.1504292 59.9423797,64.7955197 C59.9423797,66.9508074 60.5762032,68.9434269 61.6008021,70.6827865 Z M70.732754,57.7235522 C66.7593583,57.7235522 63.5398396,60.8910858 63.5398396,64.7959165 C63.5398396,68.7003503 66.7593583,71.8680162 70.732754,71.8680162 C74.7061497,71.8680162 77.9256684,68.7018051 77.9256684,64.7959165 C77.9256684,60.8897633 74.706016,57.7235522 70.732754,57.7235522 Z" id="Combined-Shape"></path>
            </g>
        </g>
    </g>
</svg>