<?xml version="1.0" encoding="UTF-8"?>
<svg width="40px" height="40px" viewBox="0 0 40 40" version="1.1" xmlns="http://www.w3.org/2000/svg" xmlns:xlink="http://www.w3.org/1999/xlink">
    <!-- Generator: Sketch 47.1 (45422) - http://www.bohemiancoding.com/sketch -->
    <title>behance-logo</title>
    <desc>Created with Sketch.</desc>
    <defs></defs>
    <g id="Quién-hay?" stroke="none" stroke-width="1" fill="none" fill-rule="evenodd">
        <g id="Pau---mobile" transform="translate(-20.000000, -123.000000)" fill="#1C1C1B">
            <g id="behance-logo" transform="translate(20.000000, 123.000000)">
                <g id="Combined-Shape">
                    <g>
                        <path d="M20,40 C8.954305,40 0,31.045695 0,20 C0,8.954305 8.954305,0 20,0 C31.045695,0 40,8.954305 40,20 C40,31.045695 31.045695,40 20,40 Z M31.6298727,13.7268807 L31.6304465,13.7268807 L31.6304465,12.0318106 L24.7597197,12.0318106 L24.7597197,13.7268807 L31.6298727,13.7268807 Z M20.1860986,20.6778079 C19.7459289,19.9933846 19.0872999,19.4963244 18.2192636,19.1806754 C18.7923448,18.8907342 19.2252474,18.569513 19.5182901,18.2163787 C20.0450913,17.586537 20.306707,16.7575547 20.306707,15.7215167 C20.306707,14.7174551 20.0482149,13.8536469 19.5265134,13.1337645 C18.6570747,11.960006 17.1847215,11.3623308 15.1079238,11.3287713 L6.86868687,11.3287713 L6.86868687,28.27504 L14.5520542,28.27504 C15.4166482,28.27504 16.2192805,28.1981698 16.9608437,28.0460124 C17.7000483,27.8941082 18.3430594,27.6098025 18.8861797,27.1951847 C19.368422,26.8366682 19.7697701,26.3913403 20.0930287,25.8641399 C20.6011521,25.0674506 20.850911,24.1655239 20.850911,23.1601327 C20.850911,22.187921 20.6293918,21.3598251 20.1860986,20.6778079 Z M10.8032492,18.0098296 L10.8032492,14.2714307 L13.9785905,14.2714307 C14.7944822,14.2714307 15.4668804,14.3615348 15.9924067,14.5364873 C16.6037995,14.78831 16.9087628,15.3115212 16.9087628,16.0997889 C16.9087628,16.813276 16.6784466,17.3102096 16.2168581,17.5897663 C15.7549509,17.8697663 15.1552237,18.0098296 14.4133418,18.0098296 L10.8032492,18.0098296 Z M17.2563725,22.9180612 C17.2563725,23.9618875 16.8822443,24.6649269 16.1361551,25.0343344 C15.7224402,25.235248 15.1491678,25.3315574 14.408497,25.3315574 L10.8032492,25.3315574 L10.8032492,20.8154651 L14.4651677,20.8154651 C15.1965314,20.8222403 15.7669352,20.9170933 16.1712156,21.1026836 C16.8941649,21.4292236 17.2563725,22.0377898 17.2563725,22.9180612 Z M34.1789046,20.161182 C34.0283991,19.2090427 33.7058417,18.3732218 33.2042841,17.6503633 C32.6500719,16.8295492 31.9463742,16.2323172 31.094912,15.8528419 C30.2407725,15.4737464 29.2833636,15.2851802 28.2212829,15.2851802 C26.4294321,15.2851802 24.9757566,15.8446103 23.8493557,16.9685994 C22.7270984,18.090499 22.1678502,19.7023036 22.1678502,21.8081291 C22.1678502,24.0537645 22.7907811,25.6725976 24.031097,26.6707704 C25.2755565,27.6654606 26.7092793,28.1646103 28.3360904,28.1646103 C30.3053477,28.1646103 31.8387063,27.5727604 32.9320228,26.3924167 C33.6376967,25.6498025 34.0303752,24.9190291 34.1157955,24.1985135 L30.8545239,24.1985135 C30.6652605,24.552281 30.446355,24.8326609 30.1981898,25.031295 C29.7427209,25.4060214 29.1510258,25.588319 28.4250805,25.588319 C27.7366182,25.588319 27.1486841,25.438821 26.6637643,25.13267 C25.8596658,24.6444746 25.4356877,23.7913674 25.3866029,22.5714488 L34.2842138,22.5714488 C34.2994492,21.5200241 34.2619026,20.7156098 34.1789046,20.161182 Z M30.9688214,20.4774009 L30.9688214,20.4774642 L25.4630987,20.4774642 C25.5787987,19.6847641 25.861132,19.0586582 26.3148797,18.5981336 C26.7655675,18.1366591 27.3998453,17.9018694 28.2212829,17.9018694 C28.9760416,17.9018694 29.6085983,18.1215257 30.1149368,18.5590653 C30.6254827,18.9954018 30.9090272,19.633855 30.9688214,20.4774009 Z"></path>
                    </g>
                </g>
            </g>
        </g>
    </g>
</svg>