<?xml version="1.0" encoding="UTF-8"?>
<svg width="40px" height="40px" viewBox="0 0 40 40" version="1.1" xmlns="http://www.w3.org/2000/svg" xmlns:xlink="http://www.w3.org/1999/xlink">
    <!-- Generator: Sketch 47.1 (45422) - http://www.bohemiancoding.com/sketch -->
    <title>Combined Shape Copy</title>
    <desc>Created with Sketch.</desc>
    <defs></defs>
    <g id="Quién-hay?" stroke="none" stroke-width="1" fill="none" fill-rule="evenodd">
        <g id="Pau---mobile" transform="translate(-20.000000, -249.000000)" fill="#1C1C1B">
            <path d="M40,289 C28.954305,289 20,280.045695 20,269 C20,257.954305 28.954305,249 40,249 C51.045695,249 60,257.954305 60,269 C60,280.045695 51.045695,289 40,289 Z M50.6946006,260.523238 C50.5633654,259.248184 49.5065762,258.29362 48.2225427,258.292929 C42.741053,258.292929 37.260254,258.292929 31.7787642,258.294311 C31.6288797,258.294311 31.4762324,258.305362 31.3311829,258.333681 C30.1169114,258.56576 29.2922013,259.570056 29.2922013,260.805739 L29.2922013,269.003108 C29.2922013,271.730039 29.2922013,274.456969 29.2935828,277.1839 C29.2935828,277.322733 29.3039434,277.462257 29.3212112,277.60109 C29.480075,278.787042 30.5334106,279.70638 31.7317958,279.707071 C37.2429862,279.707071 42.7548672,279.707071 48.2660576,279.70638 C48.3606851,279.70638 48.4539312,279.700854 48.5485587,279.690494 C49.7593767,279.548207 50.7008171,278.490727 50.7008171,277.271621 C50.7028892,271.759049 50.7028892,266.247168 50.7015078,260.735287 C50.7028892,260.663453 50.7042706,260.593691 50.6946006,260.523238 Z M39.9975453,264.883702 C42.2727503,264.883012 44.1141883,266.721687 44.1169511,268.998964 C44.119714,271.27486 42.2810388,273.116988 40.0044524,273.11837 C37.7237216,273.11906 35.8795208,271.27555 35.8822837,268.996201 C35.8850465,266.726522 37.7278659,264.883702 39.9975453,264.883702 Z M48.2384291,267.466274 L48.2384291,276.33985 C48.2384291,276.896564 47.8999803,277.238466 47.3425757,277.238466 L33.61813,277.238466 C33.2886605,277.238466 32.961263,277.239157 32.6311027,277.238466 C32.1151409,277.237776 31.76495,276.886894 31.76495,276.371623 C31.7642593,273.40018 31.76495,270.428738 31.76495,267.456604 L31.76495,267.361286 L33.622965,267.361286 C33.2071565,269.039025 33.3977929,270.64424 34.2190494,272.162424 C34.8192781,273.270326 35.6799051,274.131644 36.7774463,274.751213 C38.9449003,275.974464 41.6414396,275.859115 43.7052868,274.448681 C44.8504872,273.665414 45.6738158,272.62382 46.1649119,271.325972 C46.6532452,270.030888 46.7167907,268.708865 46.3755791,267.358523 L48.2370477,267.358523 C48.2384291,267.395131 48.2384291,267.430357 48.2384291,267.466274 Z M48.2384291,264.040343 C48.2370477,264.527295 47.8785682,264.882321 47.3895441,264.883012 L47.3729671,264.883012 L46.1780355,264.883012 C45.7718968,264.883012 45.3643768,264.883702 44.9568568,264.882321 C44.4878634,264.882321 44.1231675,264.53213 44.1204047,264.063137 C44.114879,263.237736 44.114879,262.412335 44.1204047,261.588316 C44.1231675,261.113797 44.486482,260.766369 44.9637639,260.765678 C45.7760411,260.764987 46.5862462,260.764987 47.397142,260.765678 C47.8778775,260.766369 48.2377384,261.123467 48.2391198,261.606965 C48.2398105,262.419242 48.2398105,263.229447 48.2384291,264.040343 Z" id="Combined-Shape-Copy"></path>
        </g>
    </g>
</svg>