<?xml version="1.0" encoding="UTF-8"?>
<svg width="201px" height="51px" viewBox="0 0 201 51" version="1.1" xmlns="http://www.w3.org/2000/svg" xmlns:xlink="http://www.w3.org/1999/xlink">
    <!-- Generator: Sketch 47.1 (45422) - http://www.bohemiancoding.com/sketch -->
    <title>Page 1</title>
    <desc>Created with Sketch.</desc>
    <defs>
        <polygon id="path-1" points="22.31837 0.554516043 0.71757 0.554516043 0.71757 19.3869122 22.31837 19.3869122 22.31837 0.554516043"></polygon>
        <polygon id="path-3" points="20.1768267 0.554516043 0.613571111 0.554516043 0.613571111 19.4142643 20.1768267 19.4142643 20.1768267 0.554516043"></polygon>
        <polygon id="path-5" points="0.464458889 19.4304813 20.0284589 19.4304813 20.0284589 0.570434091 0.464458889 0.570434091 0.464458889 19.4304813"></polygon>
        <polygon id="path-7" points="0.315495556 19.4304813 19.8787511 19.4304813 19.8787511 0.570434091 0.315495556 0.570434091 0.315495556 19.4304813"></polygon>
    </defs>
    <g id="Quién-hay?" stroke="none" stroke-width="1" fill="none" fill-rule="evenodd">
        <g id="Pau---mobile" transform="translate(-58.000000, -405.000000)">
            <g id="Page-1" transform="translate(58.000000, 405.000000)">
                <path d="M2.43872556,35.8530493 L34.7907922,35.8530493 C35.4094256,35.8530493 35.9446811,35.9696322 36.3965589,36.202798 C36.8469478,36.4359638 37.07177,36.7124745 37.07177,37.0330774 L37.07177,43.2373795 C37.07177,43.5587298 36.8469478,43.8352405 36.3965589,44.067659 C35.9446811,44.3015721 35.4094256,44.4174076 34.7907922,44.4174076 L2.43872556,44.4174076 C1.81860333,44.4174076 1.28334778,44.3015721 0.834447778,44.067659 C0.383314444,43.8352405 0.158492222,43.5587298 0.158492222,43.2373795 L0.158492222,37.0330774 C0.158492222,36.7124745 0.383314444,36.4359638 0.834447778,36.202798 C1.28334778,35.9696322 1.81860333,35.8530493 2.43872556,35.8530493" id="Fill-1" fill="#1D1D1B"></path>
                <path d="M73.6865256,5.39950655 L107.633937,5.39950655 C108.283092,5.39950655 108.844403,5.51608944 109.318614,5.74925521 C109.790592,5.98242099 110.027326,6.25893168 110.027326,6.57953463 L110.027326,12.7838368 C110.027326,13.105187 109.790592,13.3816977 109.318614,13.6141162 C108.844403,13.8480293 108.283092,13.9638648 107.633937,13.9638648 L73.6865256,13.9638648 C73.0366256,13.9638648 72.4753144,13.8480293 72.0033367,13.6141162 C71.5306144,13.3816977 71.2938811,13.105187 71.2938811,12.7838368 L71.2938811,6.57953463 C71.2938811,6.25893168 71.5306144,5.98242099 72.0033367,5.74925521 C72.4753144,5.51608944 73.0366256,5.39950655 73.6865256,5.39950655" id="Fill-3" fill="#1D1D1B"></path>
                <path d="M105.222234,5.39950655 L174.671457,5.39950655 C175.999546,5.39950655 177.147479,5.51608944 178.118979,5.74925521 C179.084523,5.98242099 179.569157,6.25893168 179.569157,6.57953463 L179.569157,12.7838368 C179.569157,13.105187 179.084523,13.3816977 178.118979,13.6141162 C177.147479,13.8480293 175.999546,13.9638648 174.671457,13.9638648 L105.222234,13.9638648 C103.892657,13.9638648 102.743979,13.8480293 101.779179,13.6141162 C100.810657,13.3816977 100.327512,13.105187 100.327512,12.7838368 L100.327512,6.57953463 C100.327512,6.25893168 100.810657,5.98242099 101.779179,5.74925521 C102.743979,5.51608944 103.892657,5.39950655 105.222234,5.39950655" id="Fill-5" fill="#1D1D1B"></path>
                <path d="M159.85597,5.39950655 L193.803381,5.39950655 C194.452537,5.39950655 195.013848,5.51608944 195.488059,5.74925521 C195.960037,5.98242099 196.19677,6.25893168 196.19677,6.57953463 L196.19677,12.7838368 C196.19677,13.105187 195.960037,13.3816977 195.488059,13.6141162 C195.013848,13.8480293 194.452537,13.9638648 193.803381,13.9638648 L159.85597,13.9638648 C159.20607,13.9638648 158.644759,13.8480293 158.172781,13.6141162 C157.700059,13.3816977 157.463326,13.105187 157.463326,12.7838368 L157.463326,6.57953463 C157.463326,6.25893168 157.700059,5.98242099 158.172781,5.74925521 C158.644759,5.51608944 159.20607,5.39950655 159.85597,5.39950655" id="Fill-7" fill="#1D1D1B"></path>
                <path d="M7.23614889,5.75164666 L7.23614889,8.71105842 L10.6397489,8.71105842 C11.0499378,8.71105842 11.3849378,8.58550762 11.6447489,8.33440602 C11.9038156,8.08330441 12.0326044,7.73355575 12.0326044,7.28516003 C12.0326044,6.8367643 11.9075378,6.46907981 11.6574044,6.18210655 C11.4080156,5.89513329 11.0678044,5.75164666 10.6397489,5.75164666 L7.23614889,5.75164666 Z M0.723748889,0.747550401 L10.7469489,0.747550401 C13.2832711,0.747550401 15.2932711,1.3663365 16.7762044,2.60390869 C18.2598822,3.84148088 19.0013489,5.42880174 19.0013489,7.36587126 C19.0013489,9.30294078 18.3752711,10.8409381 17.1246044,11.9798632 C15.8746822,13.1187884 13.7485489,13.6882509 10.7469489,13.6882509 L7.20934889,13.6882509 L7.20934889,18.8537697 C7.20934889,19.0510638 7.13713778,19.2214541 6.99494889,19.3649408 C6.85127111,19.5084274 6.68228222,19.5801707 6.48574889,19.5801707 L0.723748889,19.5801707 C0.526471111,19.5801707 0.356737778,19.5084274 0.214548889,19.3649408 C0.0708711111,19.2214541 0.000148888889,19.0510638 0.000148888889,18.8537697 L0.000148888889,1.47395147 C0.000148888889,1.27665735 0.0708711111,1.10626698 0.214548889,0.962780348 C0.356737778,0.819293717 0.526471111,0.747550401 0.723748889,0.747550401 L0.723748889,0.747550401 Z" id="Fill-9" fill="#1D1D1B"></path>
                <g id="Group-13" transform="translate(19.355556, 0.193034)">
                    <mask id="mask-2" fill="white">
                        <use xlink:href="#path-1"></use>
                    </mask>
                    <g id="Clip-12"></g>
                    <path d="M13.4200256,11.3426929 L11.51797,5.7467143 L9.61517,11.3426929 L13.4200256,11.3426929 Z M6.37237,19.3869122 L1.30717,19.3869122 C1.14637,19.3869122 1.00715889,19.329368 0.891025556,19.2120378 C0.774892222,19.0962023 0.71757,18.983356 0.71757,18.875741 C0.71757,18.7681261 0.725758889,18.6874148 0.74437,18.6336074 L6.58602556,1.44211537 C6.74757,0.850233021 7.14882556,0.554291845 7.79202556,0.554291845 L15.24317,0.554291845 C15.88637,0.554291845 16.28837,0.850233021 16.4484256,1.44211537 L22.2908256,18.6336074 C22.3086922,18.6874148 22.31837,18.7681261 22.31837,18.875741 C22.31837,18.983356 22.2603033,19.0962023 22.14417,19.2120378 C22.0280367,19.329368 21.88957,19.3869122 21.7280256,19.3869122 L16.6628256,19.3869122 C16.0910922,19.3869122 15.6898367,19.0820031 15.4568256,18.4721849 L14.7868256,16.5889229 L8.24837,16.5889229 L7.57762556,18.4721849 C7.34535889,19.0820031 6.94410333,19.3869122 6.37237,19.3869122 L6.37237,19.3869122 Z" id="Fill-11" fill="#1D1D1B" mask="url(#mask-2)"></path>
                </g>
                <g id="Group-16" transform="translate(43.177778, 0.193034)">
                    <mask id="mask-4" fill="white">
                        <use xlink:href="#path-3"></use>
                    </mask>
                    <g id="Clip-15"></g>
                    <path d="M17.5362822,17.4749528 C15.77716,18.7678271 13.3964267,19.4142643 10.3940822,19.4142643 C7.39322667,19.4142643 5.01174889,18.7678271 3.25262667,17.4749528 C1.49276,16.1820785 0.613571111,14.1635504 0.613571111,11.4186213 L0.613571111,1.27142607 C0.613571111,1.07712126 0.684293333,0.908972861 0.827226667,0.766980882 C0.969415556,0.62573623 1.13989333,0.553992914 1.33568222,0.553992914 L6.93837111,0.553992914 C7.13416,0.553992914 7.30314889,0.624988904 7.44682667,0.766233556 C7.58976,0.907478209 7.66048222,1.07413195 7.66048222,1.26768944 L7.66048222,11.7870531 C7.66048222,12.5089702 7.90614889,13.0642336 8.39822667,13.4520959 C8.88956,13.8392108 9.55509333,14.0335156 10.3940822,14.0335156 C11.23456,14.0335156 11.8993489,13.8392108 12.3921711,13.4520959 C12.8820156,13.0642336 13.1276822,12.5089702 13.1276822,11.7870531 L13.1276822,1.26768944 C13.1276822,1.07413195 13.1991489,0.907478209 13.3428267,0.766233556 C13.48576,0.624988904 13.6554933,0.553992914 13.8520267,0.553992914 L19.4524822,0.553992914 C19.6490156,0.553992914 19.8187489,0.62573623 19.9631711,0.766980882 C20.10536,0.908972861 20.1768267,1.07712126 20.1768267,1.27142607 L20.1768267,11.4186213 C20.1768267,14.1635504 19.2968933,16.1820785 17.5362822,17.4749528" id="Fill-14" fill="#1D1D1B" mask="url(#mask-4)"></path>
                </g>
                <g id="Group-19" transform="translate(43.177778, 30.833409)">
                    <mask id="mask-6" fill="white">
                        <use xlink:href="#path-5"></use>
                    </mask>
                    <g id="Clip-18"></g>
                    <path d="M17.3879144,17.491394 C15.6287922,18.7842683 13.2473144,19.4307055 10.2457144,19.4307055 C7.24485889,19.4307055 4.86338111,18.7842683 3.10425889,17.491394 C1.34364778,16.1985197 0.464458889,14.1799916 0.464458889,11.4350624 L0.464458889,1.28786725 C0.464458889,1.09356243 0.535181111,0.925414037 0.678858889,0.783422059 C0.821047778,0.642177406 0.991525556,0.570434091 1.18731444,0.570434091 L6.78851444,0.570434091 C6.98504778,0.570434091 7.15478111,0.64143008 7.29771444,0.782674733 C7.44139222,0.923919385 7.51211444,1.09057313 7.51211444,1.28413061 L7.51211444,11.8034943 C7.51211444,12.5254114 7.75778111,13.0806747 8.24985889,13.468537 C8.74119222,13.855652 9.40523667,14.0499568 10.2457144,14.0499568 C11.0854478,14.0499568 11.7509811,13.855652 12.2423144,13.468537 C12.7336478,13.0806747 12.9793144,12.5254114 12.9793144,11.8034943 L12.9793144,1.28413061 C12.9793144,1.09057313 13.0507811,0.923919385 13.1937144,0.782674733 C13.3373922,0.64143008 13.5063811,0.570434091 13.7036589,0.570434091 L19.3041144,0.570434091 C19.5006478,0.570434091 19.6703811,0.642177406 19.8133144,0.783422059 C19.9562478,0.925414037 20.0284589,1.09356243 20.0284589,1.28786725 L20.0284589,11.4350624 C20.0284589,14.1799916 19.1477811,16.1985197 17.3879144,17.491394" id="Fill-17" fill="#1D1D1B" mask="url(#mask-6)"></path>
                </g>
                <path d="M74.4884411,36.4084622 L74.4884411,39.260259 L77.8384411,39.260259 C78.2307633,39.260259 78.5359856,39.1302242 78.7496411,38.8701547 C78.9640411,38.6100852 79.0704967,38.2827563 79.0704967,37.888168 C79.0704967,37.4935798 78.9685078,37.1483151 78.7622967,36.8523739 C78.5575744,36.5564328 78.2493744,36.4084622 77.8384411,36.4084622 L74.4884411,36.4084622 Z M86.8432411,49.4029702 C86.8789744,49.4747135 86.8968411,49.5733606 86.8968411,49.6989114 C86.8968411,49.8244622 86.8387744,49.945529 86.7233856,50.0621119 C86.6057633,50.1786948 86.4680411,50.2369862 86.3072411,50.2369862 L80.2236411,50.2369862 C79.6868967,50.2369862 79.3116967,50.0127884 79.0980411,49.5643926 L76.7396411,44.2374515 L74.4884411,44.2374515 L74.4884411,49.5105852 C74.4884411,49.7078793 74.41623,49.8782697 74.2740411,50.0217563 C74.1311078,50.1652429 73.9613744,50.2369862 73.7648411,50.2369862 L67.9760411,50.2369862 C67.7787633,50.2369862 67.6097744,50.1652429 67.4660967,50.0217563 C67.3239078,49.8782697 67.2524411,49.7078793 67.2524411,49.5105852 L67.2524411,32.130767 C67.2524411,31.9334729 67.3239078,31.7630825 67.4660967,31.6195959 C67.6097744,31.4761092 67.7787633,31.4043659 67.9760411,31.4043659 L78.4012411,31.4043659 C80.8489744,31.4043659 82.7867633,31.9872803 84.2160967,33.1531092 C85.64543,34.3189381 86.3608411,35.906259 86.3608411,37.9150718 C86.3608411,40.3543445 85.4228411,42.1210237 83.5468411,43.2151092 L86.8432411,49.4029702 Z" id="Fill-20" fill="#1D1D1B"></path>
                <path d="M97.2688878,36.4084622 L97.2688878,39.260259 L100.618888,39.260259 C101.01121,39.260259 101.315688,39.1302242 101.529343,38.8701547 C101.744488,38.6100852 101.851688,38.2827563 101.851688,37.888168 C101.851688,37.4935798 101.748954,37.1483151 101.543488,36.8523739 C101.337277,36.5564328 101.029077,36.4084622 100.618888,36.4084622 L97.2688878,36.4084622 Z M109.623688,49.4029702 C109.658677,49.4747135 109.677288,49.5733606 109.677288,49.6989114 C109.677288,49.8244622 109.619221,49.945529 109.503088,50.0621119 C109.38621,50.1786948 109.248488,50.2369862 109.086943,50.2369862 L103.003343,50.2369862 C102.468088,50.2369862 102.092143,50.0127884 101.877743,49.5643926 L99.5193433,44.2374515 L97.2688878,44.2374515 L97.2688878,49.5105852 C97.2688878,49.7078793 97.1959322,49.8782697 97.0537433,50.0217563 C96.9115544,50.1652429 96.7410767,50.2369862 96.5445433,50.2369862 L90.7564878,50.2369862 C90.5584656,50.2369862 90.3902211,50.1652429 90.2472878,50.0217563 C90.10361,49.8782697 90.0321433,49.7078793 90.0321433,49.5105852 L90.0321433,32.130767 C90.0321433,31.9334729 90.10361,31.7630825 90.2472878,31.6195959 C90.3902211,31.4761092 90.5584656,31.4043659 90.7564878,31.4043659 L101.181688,31.4043659 C103.628677,31.4043659 105.566466,31.9872803 106.997288,33.1531092 C108.425132,34.3189381 109.140543,35.906259 109.140543,37.9150718 C109.140543,40.3543445 108.203288,42.1210237 106.327288,43.2151092 L109.623688,49.4029702 Z" id="Fill-22" fill="#1D1D1B"></path>
                <g id="Group-26" transform="translate(111.666667, 30.833409)">
                    <mask id="mask-8" fill="white">
                        <use xlink:href="#path-7"></use>
                    </mask>
                    <g id="Clip-25"></g>
                    <path d="M17.2382067,17.491394 C15.4790844,18.7842683 13.0983511,19.4307055 10.0960067,19.4307055 C7.09515111,19.4307055 4.71367333,18.7842683 2.95455111,17.491394 C1.19468444,16.1985197 0.315495556,14.1799916 0.315495556,11.4350624 L0.315495556,1.28786725 C0.315495556,1.09356243 0.386217778,0.925414037 0.529151111,0.783422059 C0.67134,0.642177406 0.841817778,0.570434091 1.03760667,0.570434091 L6.64029556,0.570434091 C6.83608444,0.570434091 7.00507333,0.64143008 7.14875111,0.782674733 C7.29168444,0.923919385 7.36240667,1.09057313 7.36240667,1.28413061 L7.36240667,11.8034943 C7.36240667,12.5254114 7.60807333,13.0806747 8.10015111,13.468537 C8.59148444,13.855652 9.25701778,14.0499568 10.0960067,14.0499568 C10.9364844,14.0499568 11.6012733,13.855652 12.0940956,13.468537 C12.58394,13.0806747 12.8296067,12.5254114 12.8296067,11.8034943 L12.8296067,1.28413061 C12.8296067,1.09057313 12.9010733,0.923919385 13.0447511,0.782674733 C13.1876844,0.64143008 13.3574178,0.570434091 13.5539511,0.570434091 L19.1544067,0.570434091 C19.35094,0.570434091 19.5206733,0.642177406 19.6650956,0.783422059 C19.8072844,0.925414037 19.8787511,1.09356243 19.8787511,1.28786725 L19.8787511,11.4350624 C19.8787511,14.1799916 18.9988178,16.1985197 17.2382067,17.491394" id="Fill-24" fill="#1D1D1B" mask="url(#mask-8)"></path>
                </g>
                <path d="M135.296599,31.4041417 L153.788599,31.4041417 C153.985132,31.4041417 154.154866,31.475885 154.298543,31.6193717 C154.441477,31.7628583 154.512199,31.9332487 154.512199,32.1305428 L154.512199,36.4620455 C154.512199,36.6600869 154.441477,36.8297299 154.298543,36.9732166 C154.154866,37.1174505 153.985132,37.1884465 153.788599,37.1884465 L148.028088,37.1884465 L148.028088,49.510361 C148.028088,49.7084024 147.955132,49.8780455 147.812199,50.0215321 C147.67001,50.1650187 147.500277,50.236762 147.303743,50.236762 L141.782943,50.236762 C141.584921,50.236762 141.416677,50.1650187 141.273743,50.0215321 C141.130066,49.8780455 141.058599,49.7084024 141.058599,49.510361 L141.058599,37.1884465 L135.296599,37.1884465 C135.100066,37.1884465 134.930332,37.1174505 134.787399,36.9732166 C134.64521,36.8297299 134.573743,36.6600869 134.573743,36.4620455 L134.573743,32.1305428 C134.573743,31.9332487 134.64521,31.7628583 134.787399,31.6193717 C134.930332,31.475885 135.100066,31.4041417 135.296599,31.4041417" id="Fill-27" fill="#1D1D1B"></path>
                <path d="M175.817901,36.9196333 L170.967101,36.9196333 L170.967101,44.7217189 L175.817901,44.7217189 C176.014434,44.7217189 176.184168,44.7934622 176.32859,44.9369488 C176.470779,45.0804354 176.542246,45.2508258 176.542246,45.4481199 L176.542246,49.5105852 C176.542246,49.7078793 176.470779,49.8782697 176.32859,50.0217563 C176.184168,50.1652429 176.014434,50.2369862 175.817901,50.2369862 L158.826701,50.2369862 C158.630168,50.2369862 158.460434,50.1652429 158.317501,50.0217563 C158.175312,49.8782697 158.103846,49.7078793 158.103846,49.5105852 L158.103846,45.4481199 C158.103846,45.2508258 158.175312,45.0804354 158.317501,44.9369488 C158.460434,44.7934622 158.630168,44.7217189 158.826701,44.7217189 L163.731101,44.7217189 L163.731101,36.9196333 L158.826701,36.9196333 C158.630168,36.9196333 158.460434,36.84789 158.317501,36.7044033 C158.175312,36.5609167 158.103846,36.3905263 158.103846,36.1932322 L158.103846,32.130767 C158.103846,31.9334729 158.175312,31.7630825 158.317501,31.6195959 C158.460434,31.4761092 158.630168,31.4043659 158.826701,31.4043659 L175.817901,31.4043659 C176.014434,31.4043659 176.184168,31.4761092 176.32859,31.6195959 C176.470779,31.7630825 176.542246,31.9334729 176.542246,32.130767 L176.542246,36.1932322 C176.542246,36.3905263 176.470779,36.5609167 176.32859,36.7044033 C176.184168,36.84789 176.014434,36.9196333 175.817901,36.9196333" id="Fill-29" fill="#1D1D1B"></path>
                <path d="M192.085203,42.1925428 L190.183148,36.5965642 L188.280348,42.1925428 L192.085203,42.1925428 Z M185.037548,50.236762 L179.972348,50.236762 C179.810803,50.236762 179.672337,50.1792179 179.556203,50.0618877 C179.44007,49.9460521 179.383492,49.8332059 179.383492,49.7255909 C179.383492,49.6179759 179.391681,49.5372647 179.409548,49.4834572 L185.251203,32.2919652 C185.412748,31.7000829 185.814003,31.4041417 186.457948,31.4041417 L193.908348,31.4041417 C194.551548,31.4041417 194.954292,31.7000829 195.113603,32.2919652 L200.956003,49.4834572 C200.973126,49.5372647 200.983548,49.6179759 200.983548,49.7255909 C200.983548,49.8332059 200.925481,49.9460521 200.809348,50.0618877 C200.693214,50.1792179 200.554748,50.236762 200.393203,50.236762 L195.328748,50.236762 C194.75627,50.236762 194.355014,49.9318529 194.122003,49.3220348 L193.452003,47.4387727 L186.913548,47.4387727 L186.242803,49.3220348 C186.010537,49.9318529 185.609281,50.236762 185.037548,50.236762 L185.037548,50.236762 Z" id="Fill-31" fill="#1D1D1B"></path>
            </g>
        </g>
    </g>
</svg>